<?xml version="1.0" encoding="UTF-8"?>
<svg id="Layer_2" xmlns="http://www.w3.org/2000/svg" >
<defs>
<style>.cls-1{fill:#f2f2f2;}.cls-2{fill:#fff;}</style>
</defs>
<g id="Layer_1-2">
<path d="M250.36,224.71c-2.1-25.33-10.03-48.38-27.6-67.08-17.87-19.02-39.45-26.66-65.2-17.71-1.09,.38-2.18,.64-3.28,.77-18.32,14.42-37.12,32.65-45.32,54.67,.56,.95,.56,2.23-.06,4.15-2.48,7.61-3.8,15.5-4.46,23.5-2.71,32.49,4.09,62.26,25.01,87.99,21.77,26.77,56.29,31.63,83.28,11.73,10.38-7.65,18.21-17.53,24.16-28.9,11.36-21.69,15.49-44.77,13.47-69.12Z"/>
<path d="M154.28,140.69c-1.02,.12-2.04,.14-3.09,.02-27.65-3.01-53.25-11.53-76.21-27.61-1.46-1.02-2.47-1.95-3.02-2.93-.8,1.08-1.58,2.18-2.33,3.3l-16.29,46.62c-.09,.73-.17,1.47-.24,2.21,3.23,2.98,6.04,5.77,9.07,8.29,12.76,10.58,27.44,17.58,43.13,22.55,1.82,.58,3.07,1.2,3.67,2.22,8.21-22.02,27.01-40.24,45.32-54.67Z"/>
<path d="M294.91,155.85c-6.57-52.14-27.62-96.85-70.31-129.37C197.28,5.67,166.11-2.8,132,1.57c-29.97,3.84-55.29,17.69-76.65,38.8C28.98,66.43,13.23,98.25,4.99,134.15c-2.28,9.92-2.83,20.07-4.99,29.98v35c.31,1.11,.8,2.21,.9,3.34,2.94,32.4,12.32,62.69,29.93,90.17,19.96,31.13,46.29,54.45,82.33,65.36,12.93,3.92,26.15,5.85,40.16,4.93-1.69-1.57-3.42-1.53-4.96-1.93-9.93-2.55-19.22-6.58-27.8-12.18-24.59-16.06-40.8-38.91-52.2-65.44-13.37-31.12-17.14-63.86-15.14-97.38,.47-7.87,1.19-15.82,3.48-24.07l18.76-53.69c.02-1.09,.47-2.32,1.37-3.86,9.44-16.11,20.66-30.69,35.6-42.08,28.22-21.51,59.03-27,92.14-13.26,26.74,11.1,44.87,31.8,58.55,56.55,14.17,25.63,21.09,53.35,23.15,82.56,1.88,26.63-1.37,52.49-8.86,77.95-.92,3.12-2.12,6.14-3.2,9.21,5.85-9.26,9.66-19.33,12.85-29.62,9.1-29.37,11.68-59.48,7.85-89.86Z"/>
<path class="cls-2" d="M232.8,204.88c-.09-8.36-2.21-16.26-8.45-22.52-7.55-7.58-19.17-6.85-25.9,1.47-9.46,11.7-9.44,31.08,.06,42.72,6.96,8.53,18.66,9.03,26.22,1.03,5.94-6.28,8-14.01,8.07-22.69Z"/>
<path class="cls-1" d="M68.15,124.34c-.65-.07-1.22,.51-1.75,2.14-2.47,7.6-5.27,15.09-7.24,22.86-.31,1.22-.37,2.22-.18,3.07"/>
<path class="cls-1" d="M70.4,126.02c-.87-.91-1.6-1.62-2.25-1.68l-9.17,28.08c.35,1.54,1.53,2.57,3.63,3.38,11.84,4.58,23.9,8.52,36.55,9.81,9.79,1,19.72,1.38,30-1.92,.11-.12,.22-.24,.33-.36-3.43-1.24-6.29-2.17-9.05-3.32-18.98-7.93-35.85-19-50.04-33.98Z"/>
<path d="M424.64,224.26c2.1-25.33,10.03-48.38,27.6-67.08,17.87-19.02,39.45-26.66,65.2-17.71,1.09,.38,2.18,.64,3.28,.77,18.32,14.42,37.12,32.65,45.32,54.67-.56,.95-.56,2.23,.06,4.15,2.48,7.61,3.8,15.5,4.46,23.5,2.71,32.49-4.09,62.26-25.01,87.99-21.77,26.77-56.29,31.63-83.28,11.73-10.38-7.65-18.21-17.53-24.16-28.9-11.36-21.69-15.49-44.77-13.47-69.12Z"/>
<path d="M520.72,140.25c1.02,.12,2.04,.14,3.09,.02,27.65-3.01,53.25-11.53,76.21-27.61,1.46-1.02,2.47-1.95,3.02-2.93,.8,1.08,1.58,2.18,2.33,3.3l16.29,46.62c.09,.73,.17,1.47,.24,2.21-3.23,2.98-6.04,5.77-9.07,8.29-12.76,10.58-27.44,17.58-43.13,22.55-1.82,.58-3.07,1.2-3.67,2.22-8.21-22.02-27.01-40.24-45.32-54.67Z"/>
<path d="M380.09,155.4c6.57-52.14,27.62-96.85,70.31-129.37,27.32-20.81,58.49-29.28,92.6-24.91,29.97,3.84,55.29,17.69,76.65,38.8,26.37,26.07,42.12,57.89,50.36,93.79,2.28,9.92,2.83,20.07,4.99,29.98v35c-.31,1.11-.8,2.21-.9,3.34-2.94,32.4-12.32,62.69-29.93,90.17-19.96,31.13-46.29,54.45-82.33,65.36-12.93,3.92-26.15,5.85-40.16,4.93,1.69-1.57,3.42-1.53,4.96-1.93,9.93-2.55,19.22-6.58,27.8-12.18,24.59-16.06,40.8-38.91,52.2-65.44,13.37-31.12,17.14-63.86,15.14-97.38-.47-7.87-1.19-15.82-3.48-24.07l-18.76-53.69c-.02-1.09-.47-2.32-1.37-3.86-9.44-16.11-20.66-30.69-35.6-42.08-28.22-21.51-59.03-27-92.14-13.26-26.74,11.1-44.87,31.8-58.55,56.55-14.17,25.63-21.09,53.35-23.15,82.56-1.88,26.63,1.37,52.49,8.86,77.95,.92,3.12,2.12,6.14,3.2,9.21-5.85-9.26-9.66-19.33-12.85-29.62-9.1-29.37-11.68-59.48-7.85-89.86Z"/>
<path class="cls-1" d="M604.6,125.57c.87-.91,1.6-1.62,2.25-1.68l9.17,28.08c-.35,1.54-1.53,2.57-3.63,3.38-11.84,4.58-23.9,8.52-36.55,9.81-9.79,1-19.72,1.38-30-1.92-.11-.12-.22-.24-.33-.36,3.43-1.24,6.29-2.17,9.05-3.32,18.98-7.93,35.85-19,50.04-33.98Z"/>
<path class="cls-2" d="M447.97,232.6c7.56,8,19.25,7.5,26.22-1.03,9.5-11.63,9.52-31.02,.06-42.72-6.73-8.32-18.35-9.05-25.9-1.47-6.24,6.27-8.36,14.17-8.45,22.52,.08,8.68,2.14,16.41,8.07,22.69Z"/>
</g>
</svg>