<?xml version="1.0" encoding="UTF-8"?><svg id="Layer_2" xmlns="http://www.w3.org/2000/svg" viewBox="0 0 737 367.11"><defs><style>.cls-1{fill:#f2f2f2;}.cls-2{fill:#fff;}</style></defs><g id="Layer_1-2"><g><path d="M737,199.07c-1.01,6.73-1.84,13.49-3.05,20.18-7.32,40.6-24.15,76.4-54.09,105.34-19.25,18.61-42.02,30.87-68.41,36.11-1.31,.26-2.62,.47-3.94,.66-.3,.04-.62-.12-1.69-.36,2.47-1.31,4.43-2.34,6.39-3.39,22.7-12.11,38.71-30.81,50.87-52.92,14.18-25.8,21.13-53.67,23.21-83.05,1.33-18.8-.5-37.19-3.41-55.89-3.13,2.99-6.02,5.76-8.91,8.53-12.3,11.76-27.13,19.2-42.99,24.72-4.05,1.41-5.14,2.66-4.02,7.25,8.98,36.77,5.73,71.9-16.41,103.65-11.47,16.45-26.79,27.78-47.59,29.74-17.95,1.7-33.02-4.93-45.95-16.77-18-16.48-27.18-37.72-30.81-61.33-4.4-28.6-.83-56.21,13.74-81.68,10.54-18.44,25.02-32.33,46.5-37.36,11.63-2.72,22.84-1.28,33.7,3.32,2.86,1.21,5.56,1.53,8.67,1.12,27.07-3.51,51.27-13.91,73.16-30.02,2.32-1.7,3.16-2.83,1.43-5.93-12.82-23.08-29.36-42.6-53.43-54.36-34.98-17.09-68-12.42-98.25,11.31-27.02,21.19-42.65,49.96-51.46,82.53-11,40.68-10.32,81.35,2.17,121.71,.15,.47,.31,.96,.34,1.45,.02,.29-.21,.59-.52,1.36-4.3-6.73-6.87-13.91-9.38-21.05-7.3-20.71-11.25-42.04-12.02-64.05-.98-27.96,2.72-55.1,12.17-81.46,9.65-26.94,24.09-50.99,44.98-70.55C525.1,12.5,557.1-1.68,594.89,.16c28.39,1.38,53.51,11.83,75.41,29.76,36.14,29.59,55.4,68.76,63.66,113.97,1.22,6.69,2.04,13.45,3.04,20.18v35Zm-168.81,11.3c-.15,7.58,1.91,14.83,7.02,20.99,7.96,9.59,20.85,9.06,28.13-1.05,8.5-11.79,8.4-29.05-.22-40.75-6.96-9.44-19.27-10.23-27.15-1.59-5.66,6.21-7.88,13.74-7.77,22.4Zm55.98-36.49c20.13-.5,37.39-5.83,54.27-12.82,2.64-1.09,2.97-2.74,2.26-5.14-2.49-8.47-4.8-16.99-8.15-25.19-1.02-2.49-1.6-3.4-3.82-.88-15.35,17.51-34.17,30.06-55.78,38.55-1,.39-2.69,.4-2.47,1.93,.19,1.39,1.53,2.16,2.94,2.32,4.13,.47,8.21,1.5,10.75,1.23Z"/><path d="M0,168.07c2.17-9.91,2.72-20.06,4.99-29.98C13.23,102.2,28.98,70.38,55.35,44.31,76.71,23.2,102.04,9.35,132,5.51c34.1-4.37,65.27,4.1,92.6,24.91,42.69,32.52,63.74,77.23,70.31,129.37,3.83,30.39,1.24,60.49-7.85,89.86-3.19,10.29-7,20.35-12.85,29.62,1.07-3.07,2.28-6.1,3.2-9.21,7.48-25.47,10.73-51.32,8.86-77.95-2.06-29.21-8.98-56.93-23.15-82.56-13.68-24.75-31.81-45.45-58.55-56.55-33.11-13.75-63.92-8.25-92.14,13.26-14.94,11.39-26.16,25.96-35.6,42.08-2.4,4.09-1.63,6.07,2.16,8.72,22.95,16.08,48.56,24.6,76.21,27.61,2.19,.24,4.28-.06,6.38-.79,25.75-8.96,47.33-1.31,65.2,17.71,17.56,18.7,25.49,41.75,27.6,67.08,2.02,24.35-2.11,47.44-13.47,69.12-5.95,11.36-13.79,21.24-24.16,28.9-26.99,19.9-61.51,15.05-83.28-11.73-20.92-25.73-27.72-55.5-25.01-87.99,.67-8.01,1.98-15.89,4.46-23.5,1.3-3.99-.1-5.26-3.61-6.37-15.69-4.97-30.37-11.97-43.13-22.55-3.16-2.62-6.07-5.53-9.47-8.66-2.29,8.25-3.01,16.19-3.48,24.07-2,33.52,1.77,66.26,15.14,97.38,11.4,26.53,27.61,49.38,52.2,65.44,8.58,5.6,17.87,9.63,27.8,12.18,1.55,.4,3.28,.36,4.96,1.93-14,.92-27.23-1.02-40.16-4.93-36.04-10.92-62.37-34.23-82.33-65.36C13.22,269.11,3.84,238.82,.9,206.42c-.1-1.13-.59-2.23-.9-3.34,0-11.67,0-23.33,0-35Z"/><path class="cls-2" d="M232.8,208.82c-.09-8.36-2.21-16.26-8.45-22.52-7.55-7.58-19.17-6.85-25.9,1.47-9.46,11.7-9.44,31.08,.06,42.72,6.96,8.53,18.66,9.03,26.22,1.03,5.94-6.28,8-14.01,8.07-22.69Z"/><path class="cls-1" d="M129.88,167.4c-3.6-1.31-6.57-2.26-9.43-3.46-18.98-7.93-35.85-19-50.04-33.98-1.73-1.83-2.94-2.81-4,.46-2.47,7.6-5.27,15.09-7.24,22.86-.86,3.41,.19,5.19,3.46,6.45,11.84,4.58,23.9,8.52,36.55,9.81,10.02,1.02,20.17,1.41,30.71-2.14Z"/></g></g></svg>